<?xml version="1.0" encoding="UTF-8" standalone="no"?>
<!DOCTYPE svg PUBLIC "-//W3C//DTD SVG 1.1//EN"
 "http://www.w3.org/Graphics/SVG/1.1/DTD/svg11.dtd">
<!-- Generated by graphviz version 9.0.0 (20230911.1827)
 -->
<!-- Title: G Pages: 1 -->
<svg width="375pt" height="450pt"
 viewBox="0.00 0.00 374.60 450.25" xmlns="http://www.w3.org/2000/svg" xmlns:xlink="http://www.w3.org/1999/xlink">
<g id="graph0" class="graph" transform="scale(1 1) rotate(0) translate(4 446.25)">
<title>G</title><style>.edge>path:hover{stroke-width:8}</style>
<polygon fill="white" stroke="none" points="-4,4 -4,-446.25 370.6,-446.25 370.6,4 -4,4"/>
<!-- MonitorAlp_py -->
<g id="node1" class="node">
<title>MonitorAlp_py</title><style>.edge>path:hover{stroke-width:8}</style>
<ellipse fill="#924e4e" stroke="black" cx="184.8" cy="-18" rx="45.7" ry="18"/>
<text text-anchor="middle" x="184.8" y="-14.5" font-family="Helvetica,sans-Serif" font-size="10.00" fill="#ffffff">MonitorAlp.py</text>
</g>
<!-- PySimpleGUI -->
<g id="node2" class="node">
<title>PySimpleGUI</title><style>.edge>path:hover{stroke-width:8}</style>
<ellipse fill="#cc8633" stroke="black" cx="54.8" cy="-343" rx="44.8" ry="18"/>
<text text-anchor="middle" x="54.8" y="-339.5" font-family="Helvetica,sans-Serif" font-size="10.00" fill="#000000">PySimpleGUI</text>
</g>
<!-- MonitorAlp_py&#45;&gt;PySimpleGUI -->
<g id="edge1" class="edge">
<title>MonitorAlp_py&#45;&gt;PySimpleGUI</title><style>.edge>path:hover{stroke-width:8}</style>
<path fill="none" stroke="black" d="M187.58,-36.17C188.63,-46.78 188.75,-60.51 184.8,-72"/>
<path fill="none" stroke="black" d="M184.8,-73C165.31,-129.69 96.66,-66.08 54.8,-109 -2.16,-167.41 -5.18,-211.02 18.8,-289 21.81,-298.78 27.3,-308.38 33.11,-316.66"/>
<polygon fill="#924e4e" stroke="black" points="30.21,-318.62 39.03,-324.5 35.8,-314.41 30.21,-318.62"/>
</g>
<!-- helpers -->
<g id="node7" class="node">
<title>helpers</title><style>.edge>path:hover{stroke-width:8}</style>
<ellipse fill="#33cca2" stroke="black" cx="247.8" cy="-343" rx="28.56" ry="18"/>
<text text-anchor="middle" x="247.8" y="-339.5" font-family="Helvetica,sans-Serif" font-size="10.00" fill="#000000">helpers</text>
</g>
<!-- MonitorAlp_py&#45;&gt;helpers -->
<g id="edge9" class="edge">
<title>MonitorAlp_py&#45;&gt;helpers</title><style>.edge>path:hover{stroke-width:8}</style>
<path fill="none" stroke="black" d="M184.8,-73C176.68,-94.26 347.74,-161.11 358.8,-181 389.04,-235.36 319.13,-294.38 276.94,-323.55"/>
<polygon fill="#924e4e" stroke="black" points="275.24,-320.47 268.9,-328.95 279.15,-326.28 275.24,-320.47"/>
</g>
<!-- project -->
<g id="node9" class="node">
<title>project</title><style>.edge>path:hover{stroke-width:8}</style>
<ellipse fill="#43539d" stroke="black" cx="184.8" cy="-127" rx="27.21" ry="18"/>
<text text-anchor="middle" x="184.8" y="-123.5" font-family="Helvetica,sans-Serif" font-size="10.00" fill="#ffffff">project</text>
</g>
<!-- MonitorAlp_py&#45;&gt;project -->
<g id="edge13" class="edge">
<title>MonitorAlp_py&#45;&gt;project</title><style>.edge>path:hover{stroke-width:8}</style>
<path fill="none" stroke="black" d="M184.8,-73C181.89,-80.62 180.99,-89.33 181.07,-97.44"/>
<polygon fill="#924e4e" stroke="black" points="177.56,-97.45 181.66,-107.22 184.55,-97.02 177.56,-97.45"/>
</g>
<!-- projectList -->
<g id="node10" class="node">
<title>projectList</title><style>.edge>path:hover{stroke-width:8}</style>
<ellipse fill="#6d49ac" stroke="black" cx="100.8" cy="-127" rx="36.68" ry="18"/>
<text text-anchor="middle" x="100.8" y="-123.5" font-family="Helvetica,sans-Serif" font-size="10.00" fill="#ffffff">projectList</text>
</g>
<!-- MonitorAlp_py&#45;&gt;projectList -->
<g id="edge14" class="edge">
<title>MonitorAlp_py&#45;&gt;projectList</title><style>.edge>path:hover{stroke-width:8}</style>
<path fill="none" stroke="black" d="M184.8,-73C180.65,-83.87 157.54,-98 136.61,-108.94"/>
<polygon fill="#924e4e" stroke="black" points="135.28,-105.69 127.95,-113.34 138.45,-111.93 135.28,-105.69"/>
</g>
<!-- PySimpleGUI_PySimpleGUI -->
<g id="node3" class="node">
<title>PySimpleGUI_PySimpleGUI</title><style>.edge>path:hover{stroke-width:8}</style>
<ellipse fill="#b68953" stroke="black" cx="54.8" cy="-419.63" rx="54.8" ry="22.63"/>
<text text-anchor="middle" x="54.8" y="-422.13" font-family="Helvetica,sans-Serif" font-size="10.00" fill="#000000">PySimpleGUI.</text>
<text text-anchor="middle" x="54.8" y="-410.13" font-family="Helvetica,sans-Serif" font-size="10.00" fill="#000000">PySimpleGUI</text>
</g>
<!-- PySimpleGUI&#45;&gt;PySimpleGUI_PySimpleGUI -->
<g id="edge4" class="edge">
<title>PySimpleGUI&#45;&gt;PySimpleGUI_PySimpleGUI</title><style>.edge>path:hover{stroke-width:8}</style>
<path fill="none" stroke="black" d="M54.8,-361.31C54.8,-368.45 54.8,-376.98 54.8,-385.25"/>
<polygon fill="#cc8633" stroke="black" points="51.3,-385.08 54.8,-395.08 58.3,-385.08 51.3,-385.08"/>
</g>
<!-- adjustText -->
<g id="node4" class="node">
<title>adjustText</title><style>.edge>path:hover{stroke-width:8}</style>
<ellipse fill="#adb653" stroke="black" cx="312.8" cy="-199" rx="36.68" ry="18"/>
<text text-anchor="middle" x="312.8" y="-195.5" font-family="Helvetica,sans-Serif" font-size="10.00" fill="#000000">adjustText</text>
</g>
<!-- controlPoint -->
<g id="node5" class="node">
<title>controlPoint</title><style>.edge>path:hover{stroke-width:8}</style>
<ellipse fill="#77b653" stroke="black" cx="247.8" cy="-419.63" rx="40.74" ry="18"/>
<text text-anchor="middle" x="247.8" y="-416.13" font-family="Helvetica,sans-Serif" font-size="10.00" fill="#000000">controlPoint</text>
</g>
<!-- gui -->
<g id="node6" class="node">
<title>gui</title><style>.edge>path:hover{stroke-width:8}</style>
<ellipse fill="#3db853" stroke="black" cx="54.8" cy="-271" rx="27" ry="18"/>
<text text-anchor="middle" x="54.8" y="-267.5" font-family="Helvetica,sans-Serif" font-size="10.00" fill="#000000">gui</text>
</g>
<!-- gui&#45;&gt;PySimpleGUI -->
<g id="edge2" class="edge">
<title>gui&#45;&gt;PySimpleGUI</title><style>.edge>path:hover{stroke-width:8}</style>
<path fill="none" stroke="black" d="M54.8,-289.3C54.8,-296.59 54.8,-305.27 54.8,-313.46"/>
<polygon fill="#3db853" stroke="black" points="51.3,-313.38 54.8,-323.38 58.3,-313.38 51.3,-313.38"/>
</g>
<!-- gui&#45;&gt;helpers -->
<g id="edge10" class="edge">
<title>gui&#45;&gt;helpers</title><style>.edge>path:hover{stroke-width:8}</style>
<path fill="none" stroke="black" d="M78.08,-280.44C111.64,-292.62 173.87,-315.18 212.93,-329.35"/>
<polygon fill="#3db853" stroke="black" points="211.51,-332.56 222.1,-332.68 213.9,-325.98 211.51,-332.56"/>
</g>
<!-- helpers&#45;&gt;controlPoint -->
<g id="edge6" class="edge">
<title>helpers&#45;&gt;controlPoint</title><style>.edge>path:hover{stroke-width:8}</style>
<path fill="none" stroke="black" d="M247.8,-361.31C247.8,-369.73 247.8,-380.07 247.8,-389.64"/>
<polygon fill="#33cca2" stroke="black" points="244.3,-389.64 247.8,-399.64 251.3,-389.64 244.3,-389.64"/>
</g>
<!-- measurement -->
<g id="node8" class="node">
<title>measurement</title><style>.edge>path:hover{stroke-width:8}</style>
<ellipse fill="#4c97b3" stroke="black" cx="247.8" cy="-271" rx="45.25" ry="18"/>
<text text-anchor="middle" x="247.8" y="-267.5" font-family="Helvetica,sans-Serif" font-size="10.00" fill="#000000">measurement</text>
</g>
<!-- measurement&#45;&gt;helpers -->
<g id="edge11" class="edge">
<title>measurement&#45;&gt;helpers</title><style>.edge>path:hover{stroke-width:8}</style>
<path fill="none" stroke="black" d="M247.8,-289.3C247.8,-296.59 247.8,-305.27 247.8,-313.46"/>
<polygon fill="#4c97b3" stroke="black" points="244.3,-313.38 247.8,-323.38 251.3,-313.38 244.3,-313.38"/>
</g>
<!-- project&#45;&gt;adjustText -->
<g id="edge5" class="edge">
<title>project&#45;&gt;adjustText</title><style>.edge>path:hover{stroke-width:8}</style>
<path fill="none" stroke="black" d="M205.37,-139.25C225.19,-150.09 255.54,-166.68 278.93,-179.48"/>
<polygon fill="#43539d" stroke="black" points="277.02,-182.42 287.47,-184.15 280.38,-176.28 277.02,-182.42"/>
</g>
<!-- project&#45;&gt;measurement -->
<g id="edge12" class="edge">
<title>project&#45;&gt;measurement</title><style>.edge>path:hover{stroke-width:8}</style>
<path fill="none" stroke="black" d="M200.06,-142.37C209.73,-152.32 221.7,-166.37 228.8,-181 238.03,-200.03 242.81,-223.5 245.26,-241.56"/>
<polygon fill="#43539d" stroke="black" points="241.76,-241.79 246.41,-251.31 248.71,-240.97 241.76,-241.79"/>
</g>
<!-- uiHandler -->
<g id="node11" class="node">
<title>uiHandler</title><style>.edge>path:hover{stroke-width:8}</style>
<ellipse fill="#ad3db8" stroke="black" cx="99.8" cy="-199" rx="33.98" ry="18"/>
<text text-anchor="middle" x="99.8" y="-195.5" font-family="Helvetica,sans-Serif" font-size="10.00" fill="#ffffff">uiHandler</text>
</g>
<!-- project&#45;&gt;uiHandler -->
<g id="edge15" class="edge">
<title>project&#45;&gt;uiHandler</title><style>.edge>path:hover{stroke-width:8}</style>
<path fill="none" stroke="black" d="M168.41,-141.5C156.46,-151.34 140.01,-164.89 126.22,-176.25"/>
<polygon fill="#43539d" stroke="black" points="124.27,-173.32 118.77,-182.37 128.72,-178.72 124.27,-173.32"/>
</g>
<!-- xlsxwriter -->
<g id="node12" class="node">
<title>xlsxwriter</title><style>.edge>path:hover{stroke-width:8}</style>
<ellipse fill="#b65389" stroke="black" cx="185.8" cy="-199" rx="34.43" ry="18"/>
<text text-anchor="middle" x="185.8" y="-195.5" font-family="Helvetica,sans-Serif" font-size="10.00" fill="#ffffff">xlsxwriter</text>
</g>
<!-- project&#45;&gt;xlsxwriter -->
<g id="edge17" class="edge">
<title>project&#45;&gt;xlsxwriter</title><style>.edge>path:hover{stroke-width:8}</style>
<path fill="none" stroke="black" d="M185.05,-145.3C185.15,-152.59 185.28,-161.27 185.39,-169.46"/>
<polygon fill="#43539d" stroke="black" points="181.89,-169.43 185.53,-179.38 188.89,-169.33 181.89,-169.43"/>
</g>
<!-- projectList&#45;&gt;gui -->
<g id="edge7" class="edge">
<title>projectList&#45;&gt;gui</title><style>.edge>path:hover{stroke-width:8}</style>
<path fill="none" stroke="black" d="M83.27,-143.3C73.51,-153 62.24,-166.44 56.8,-181 49.63,-200.17 49.35,-223.33 50.74,-241.21"/>
<polygon fill="#6d49ac" stroke="black" points="47.26,-241.54 51.75,-251.13 54.22,-240.83 47.26,-241.54"/>
</g>
<!-- projectList&#45;&gt;uiHandler -->
<g id="edge16" class="edge">
<title>projectList&#45;&gt;uiHandler</title><style>.edge>path:hover{stroke-width:8}</style>
<path fill="none" stroke="black" d="M100.55,-145.3C100.45,-152.59 100.33,-161.27 100.21,-169.46"/>
<polygon fill="#6d49ac" stroke="black" points="96.71,-169.33 100.07,-179.38 103.71,-169.43 96.71,-169.33"/>
</g>
<!-- uiHandler&#45;&gt;PySimpleGUI -->
<g id="edge3" class="edge">
<title>uiHandler&#45;&gt;PySimpleGUI</title><style>.edge>path:hover{stroke-width:8}</style>
<path fill="none" stroke="black" d="M100.53,-217.28C100.73,-235.63 99.45,-265.21 90.8,-289 87.3,-298.62 81.67,-308.17 75.89,-316.46"/>
<polygon fill="#ad3db8" stroke="black" points="73.2,-314.2 70.05,-324.32 78.82,-318.38 73.2,-314.2"/>
</g>
<!-- uiHandler&#45;&gt;gui -->
<g id="edge8" class="edge">
<title>uiHandler&#45;&gt;gui</title><style>.edge>path:hover{stroke-width:8}</style>
<path fill="none" stroke="black" d="M89.14,-216.59C83.79,-224.9 77.2,-235.15 71.23,-244.44"/>
<polygon fill="#ad3db8" stroke="black" points="68.36,-242.43 65.9,-252.74 74.25,-246.22 68.36,-242.43"/>
</g>
</g>
</svg>
